<svg xmlns="http://www.w3.org/2000/svg" xmlns:xlink="http://www.w3.org/1999/xlink" version="1.1" width="1024" height="768" viewBox="0 0 1024 768" xml:space="preserve">
<desc>Created with Fabric.js 6.7.1</desc>
<defs>
</defs>
<g transform="matrix(1.0068 0 0 1.0068 364.6707 448.0427)">
<path style="stroke: none; stroke-width: 0; stroke-dasharray: none; stroke-linecap: butt; stroke-dashoffset: 0; stroke-linejoin: miter; stroke-miterlimit: 2; fill: rgb(3,98,128); fill-rule: nonzero; opacity: 1;" transform=" translate(-365.6514, -447.5994)" d="M 395.58 422.93 C 388.5656 422.4692 378.71 422.3668 368.828 422.4692 C 370.9016 419.218 372.8472 416.4788 374.4856 414.5076 C 374.844 414.0468 374.7928 413.4068 374.3576 413.0484 C 373.8968 412.6644 373.2568 412.7412 372.8984 413.1764 C 371.004 415.4548 368.7512 418.6804 366.3192 422.5204 C 354.0572 422.6996 342.0502 423.2372 335.6762 423.826 C 335.113 423.8772 334.6778 424.3892 334.7546 424.9524 C 334.8058 425.49 335.241 425.8996 335.7786 425.8996 L 335.881 425.8996 C 341.8458 425.3364 353.212 424.8244 365.014 424.6196 C 352.419 445.0226 335.702 479.1216 334.857 480.9136 C 334.601 481.4256 334.8058 482.04 335.3178 482.296 C 335.4714 482.3728 335.625 482.3984 335.7786 482.3984 C 336.1626 482.3984 336.521 482.1936 336.7002 481.8096 C 336.9306 481.3744 354.7742 444.9456 367.4712 424.5936 C 377.8392 424.44 388.2582 424.5168 395.4522 425.0032 C 396.0154 425.0288 396.5274 424.5936 396.553 424.0304 C 396.6042 423.4672 396.169 422.9552 395.5802 422.9296 Z" stroke-linecap="round"/>
</g>
<g transform="matrix(1.0068 0 0 1.0068 367.2345 441.3541)">
<path style="stroke: none; stroke-width: 0; stroke-dasharray: none; stroke-linecap: butt; stroke-dashoffset: 0; stroke-linejoin: miter; stroke-miterlimit: 2; fill: rgb(3,98,128); fill-rule: nonzero; opacity: 1;" transform=" translate(-368.198, -440.956)" d="M 374.32 440.06 C 373.9104 440.06 373.7312 439.5736 373.5264 437.884 C 373.3216 436.476 373.04 434.3512 371.0944 434.3512 C 369.6352 434.3512 367.7664 436.22 365.9744 438.5752 C 366.128 437.9608 366.2048 437.5512 366.2048 437.2696 C 366.1792 436.7064 365.6928 436.2456 365.104 436.2712 C 364.5408 436.2968 364.1056 436.7576 364.1312 437.3464 C 364.08 437.9608 362.928 441.084 362.2112 442.9528 C 361.5712 444.668 361.1872 445.7688 361.0592 446.2808 C 360.9312 446.7928 361.1872 447.3048 361.6736 447.484 C 361.8016 447.5352 361.9296 447.5608 362.0576 447.5608 C 362.416 447.5608 362.7744 447.3816 362.9536 447.0488 C 366.4352 440.8536 369.9936 436.5268 371.0688 436.4508 C 371.2736 436.6812 371.376 437.6028 371.4528 438.166 C 371.6576 439.6508 371.9904 442.134 374.32 442.134 C 374.9088 442.134 375.3696 441.6476 375.3696 441.0844 C 375.3696 440.5212 374.9088 440.0604 374.32 440.0604 Z" stroke-linecap="round"/>
</g>
<g transform="matrix(1.0068 0 0 1.0068 384.9008 443.4444)">
<path style="stroke: none; stroke-width: 0; stroke-dasharray: none; stroke-linecap: butt; stroke-dashoffset: 0; stroke-linejoin: miter; stroke-miterlimit: 2; fill: rgb(3,98,128); fill-rule: nonzero; opacity: 1;" transform=" translate(-385.745, -443.0322)" d="M 399.78 440.39 C 399.396 439.9548 398.7304 439.9292 398.3208 440.3132 C 396.708 441.7468 391.7928 445.4844 388.3624 445.4844 C 387.3896 445.4844 386.6728 445.2284 386.1864 444.6908 C 385.2392 443.6156 385.444 441.7724 385.444 441.7468 C 385.4952 441.3116 385.2392 440.8764 384.8296 440.6716 C 384.7016 440.6204 384.5736 440.5948 384.42 440.5948 C 384.5992 440.2108 384.5224 439.7756 384.2408 439.4684 C 383.012 438.1884 381.1688 437.7532 379.044 438.2396 C 377.38 438.6492 375.588 439.5964 374.1032 440.8508 C 371.62 443.0012 370.8008 445.2796 371.9784 446.79 C 372.4136 447.3276 373.2072 447.9676 374.7176 447.9932 C 374.7432 448.0188 374.7944 448.0188 374.82 448.0188 C 377.3288 448.0188 380.8872 446.3036 383.5752 443.9484 C 383.7544 444.6652 384.0616 445.4076 384.6248 446.0476 C 385.5208 447.046 386.7752 447.558 388.3624 447.558 C 393.2776 447.558 399.4474 442.0796 399.7034 441.8492 C 400.113 441.4652 400.1642 440.8252 399.7802 440.39 Z M 374.82 445.9452 C 374.7944 445.9452 374.7688 445.9452 374.7432 445.9196 C 374.2056 445.9196 373.8216 445.7916 373.6168 445.51 C 373.284 445.0748 373.8984 443.7692 375.46 442.438 C 376.8424 441.2348 378.9672 440.1084 380.7336 440.1084 C 381.5016 440.1084 382.1928 440.3388 382.7304 440.8764 C 382.9096 441.0812 383.14 441.1836 383.396 441.2092 C 381.1176 443.7436 377.1496 445.9452 374.82 445.9452 Z" stroke-linecap="round"/>
</g>
<g transform="matrix(1.0068 0 0 1.0068 413.5983 442.7061)">
<path style="stroke: none; stroke-width: 0; stroke-dasharray: none; stroke-linecap: butt; stroke-dashoffset: 0; stroke-linejoin: miter; stroke-miterlimit: 2; fill: rgb(3,98,128); fill-rule: nonzero; opacity: 1;" transform=" translate(-414.2486, -442.2989)" d="M 429.69 440.88 C 429.562 440.3168 429.0244 439.9584 428.4612 440.0608 C 421.1908 441.6224 417.4792 439.6768 416.4292 438.2944 C 416.25 438.064 415.9684 437.9104 415.6868 437.8848 C 415.3796 437.8592 415.098 437.9616 414.8932 438.1664 C 412.8196 440.0864 404.7812 444.6432 401.9142 444.6432 C 401.3254 444.6432 401.1462 444.4128 401.0182 444.1824 C 400.5318 443.184 401.1718 440.9056 401.6838 440.2656 C 402.0422 439.8304 401.9654 439.1904 401.5302 438.832 C 401.095 438.4736 400.4294 438.5248 400.071 438.9856 C 399.2262 440.0352 398.2278 443.1584 399.1494 445.0784 C 399.6614 446.128 400.6342 446.7168 401.9142 446.7168 C 405.1398 446.7168 412.4612 442.7232 415.5332 440.3424 C 416.2244 440.9312 417.3508 441.6736 419.1428 442.16 C 421.8308 442.928 425.1076 442.9024 428.8964 442.1088 C 429.4596 441.9808 429.818 441.4432 429.69 440.88 Z" stroke-linecap="round"/>
</g>
<g transform="matrix(1.0068 0 0 1.0068 439.802 442.5518)">
<path style="stroke: none; stroke-width: 0; stroke-dasharray: none; stroke-linecap: butt; stroke-dashoffset: 0; stroke-linejoin: miter; stroke-miterlimit: 2; fill: rgb(3,98,128); fill-rule: nonzero; opacity: 1;" transform=" translate(-440.2754, -442.1456)" d="M 452.33 440.52 C 452.0228 440.0336 451.3828 439.9056 450.8964 440.2128 C 450.8196 440.2896 442.2692 445.896 433.1554 445.896 C 432.0546 445.896 431.1842 445.6656 430.6978 445.2048 C 430.3138 444.8464 430.109 444.3088 430.109 443.6176 L 430.109 443.3104 L 430.2114 443.336 C 432.8482 444.0272 434.973 442.8496 436.0482 441.5184 C 437.0722 440.2896 437.3794 438.8048 436.8674 437.7296 C 436.4578 436.8336 435.5362 436.3216 434.3586 436.3216 C 431.005 436.3216 428.0354 440.392 428.0354 443.6176 C 428.0354 444.8976 428.4706 445.9728 429.2898 446.7152 C 430.1858 447.56 431.4914 447.9696 433.1554 447.9696 C 442.909 447.9696 451.6894 442.184 452.0484 441.9536 C 452.5348 441.6208 452.6628 440.9808 452.33 440.52 Z M 434.359 438.3952 C 434.5126 438.3952 434.8966 438.4208 434.999 438.6 C 435.127 438.856 435.0246 439.5216 434.4614 440.2128 C 434.1286 440.5968 432.8742 441.8768 430.7238 441.3392 L 430.6982 441.3392 C 431.5174 439.7264 433.0278 438.3952 434.359 438.3952 Z" stroke-linecap="round"/>
</g>
<g transform="matrix(1.0068 0 0 1.0068 460.9898 431.704)">
<path style="stroke: none; stroke-width: 0; stroke-dasharray: none; stroke-linecap: butt; stroke-dashoffset: 0; stroke-linejoin: miter; stroke-miterlimit: 2; fill: rgb(3,98,128); fill-rule: nonzero; opacity: 1;" transform=" translate(-461.3201, -431.3711)" d="M 472.39 414.56 C 472.7996 414.1504 472.774 413.4848 472.3644 413.0752 C 471.9548 412.6912 471.2892 412.7168 470.9052 413.1264 C 469.4716 414.6368 463.6604 421.5744 458.4892 429.0244 C 448.4032 443.5654 449.8364 446.8674 450.2972 447.9684 C 450.6812 448.8644 451.6028 449.9396 453.8556 449.9396 C 457.414 449.9396 461.3308 448.5828 465.5036 445.8692 C 468.55 443.8724 470.5724 441.9012 470.6492 441.8244 C 471.0588 441.4148 471.0588 440.7748 470.6492 440.3652 C 470.2652 439.9556 469.5996 439.9556 469.19 440.3396 C 469.1132 440.4164 461.4588 447.866 453.856 447.866 C 452.4992 447.866 452.2944 447.354 452.192 447.1492 C 451.7568 446.1508 451.68 442.4644 460.1792 430.2022 C 465.2992 422.855 470.9822 416.0202 472.3902 414.5602 Z" stroke-linecap="round"/>
</g>
<g transform="matrix(1.0068 0 0 1.0068 498.8152 435.0087)">
<path style="stroke: none; stroke-width: 0; stroke-dasharray: none; stroke-linecap: butt; stroke-dashoffset: 0; stroke-linejoin: miter; stroke-miterlimit: 2; fill: rgb(3,98,128); fill-rule: nonzero; opacity: 1;" transform=" translate(-498.8899, -434.6535)" d="M 513.91 440.34 C 513.5004 439.956 512.8348 439.956 512.4508 440.3656 C 512.3996 440.4168 507.382 445.3832 500.0858 445.3832 C 499.8298 445.3832 499.4202 445.3576 499.3178 445.1528 C 499.1642 444.8456 498.3706 441.7992 511.0168 426.5418 C 512.6552 424.5962 513.8328 423.2394 513.9864 423.0602 C 514.3448 422.5994 514.2936 421.9594 513.8584 421.5754 C 513.4232 421.217 512.7576 421.2682 512.3992 421.7034 C 512.3224 421.7802 512.22 421.9082 512.0664 422.0874 C 511.1448 423.1626 510.2744 424.1866 509.4552 425.185 C 505.7432 429.5626 499.4968 436.91 496.6042 440.033 C 496.5786 439.8282 496.5018 439.6234 496.3482 439.4698 C 495.1194 438.1898 493.2762 437.7546 491.1514 438.241 C 489.4874 438.625 487.6954 439.5978 486.2106 440.8522 C 483.7274 443.0026 482.9082 445.281 484.0858 446.7914 C 484.4698 447.2778 485.2122 447.8922 486.5178 447.969 L 486.7994 447.969 C 489.897 447.969 494.4794 445.1786 497.2444 442.3626 L 498.038 441.5434 C 496.7324 444.4874 497.1932 445.5114 497.4236 446.0234 C 497.7308 446.689 498.4476 447.457 500.0604 447.457 C 508.278 447.457 513.7054 442.0298 513.9104 441.7994 C 514.32 441.4154 514.32 440.7498 513.9104 440.3402 Z M 486.646 445.8952 C 486.006 445.8696 485.8012 445.6136 485.7244 445.5112 C 485.3916 445.076 486.006 443.7704 487.5676 442.4392 C 488.95 441.236 491.0748 440.1096 492.8412 440.1096 C 493.6092 440.1096 494.3004 440.34 494.838 440.8776 C 495.0172 441.0824 495.2476 441.1848 495.478 441.2104 C 492.6876 443.8984 488.7196 446.0232 486.646 445.8952 Z" stroke-linecap="round"/>
</g>
<g transform="matrix(1.0068 0 0 1.0068 524.3732 442.5518)">
<path style="stroke: none; stroke-width: 0; stroke-dasharray: none; stroke-linecap: butt; stroke-dashoffset: 0; stroke-linejoin: miter; stroke-miterlimit: 2; fill: rgb(3,98,128); fill-rule: nonzero; opacity: 1;" transform=" translate(-524.2754, -442.1456)" d="M 536.33 440.52 C 536.0228 440.0336 535.3828 439.9056 534.8964 440.2128 C 534.8196 440.2896 526.2692 445.896 517.1554 445.896 C 516.0546 445.896 515.1842 445.6656 514.6978 445.2048 C 514.3138 444.8464 514.109 444.3088 514.109 443.6176 L 514.109 443.3104 L 514.2114 443.336 C 516.8482 444.0272 518.973 442.8496 520.0482 441.5184 C 521.0722 440.2896 521.3794 438.8048 520.8674 437.7296 C 520.4578 436.8336 519.5362 436.3216 518.3586 436.3216 C 515.005 436.3216 512.0354 440.392 512.0354 443.6176 C 512.0354 444.8976 512.4706 445.9728 513.2898 446.7152 C 514.1858 447.56 515.4914 447.9696 517.1554 447.9696 C 526.909 447.9696 535.6894 442.184 536.0484 441.9536 C 536.5348 441.6208 536.6628 440.9808 536.33 440.52 Z M 518.359 438.3952 C 518.5126 438.3952 518.8966 438.4208 518.999 438.6 C 519.127 438.856 519.0246 439.5216 518.4614 440.2128 C 518.1286 440.5968 516.8742 441.8768 514.7238 441.3392 L 514.6982 441.3392 C 515.5174 439.7264 517.0278 438.3952 518.359 438.3952 Z" stroke-linecap="round"/>
</g>
<g transform="matrix(1.0068 0 0 1.0068 544.3401 445.8361)">
<path style="stroke: none; stroke-width: 0; stroke-dasharray: none; stroke-linecap: butt; stroke-dashoffset: 0; stroke-linejoin: miter; stroke-miterlimit: 2; fill: rgb(3,98,128); fill-rule: nonzero; opacity: 1;" transform=" translate(-544.1074, -445.4077)" d="M 557.14 440.88 C 557.0376 440.3168 556.5 439.9584 555.9368 440.0608 C 555.8856 440.0864 550.484 441.136 544.8518 442.6976 C 543.9558 442.9536 543.111 443.184 542.343 443.4144 C 541.6518 442.5184 540.5766 441.904 539.7062 441.4176 C 539.0406 441.0592 538.1446 440.5472 538.0678 440.1888 C 538.0678 440.1376 538.247 439.9328 538.759 439.7536 C 539.8086 439.3696 541.0886 439.4208 541.3958 439.5744 C 541.8566 439.9328 542.4966 439.856 542.855 439.4208 C 543.2134 438.9856 543.1366 438.32 542.7014 437.9616 C 541.575 437.04 538.6566 437.3216 537.223 438.192 C 536.2502 438.7808 535.815 439.6768 536.0454 440.6496 C 536.327 441.904 537.5302 442.5696 538.6822 443.2352 C 539.271 443.5424 539.7574 443.8496 540.1414 444.1312 C 532.743 446.64 531.7702 448.3808 531.4118 448.9952 C 531.0278 449.6864 530.951 450.4032 531.207 451.0944 C 531.7702 452.6048 532.9222 453.424 534.407 453.424 C 534.6374 453.424 534.8678 453.3984 535.0982 453.3728 C 538.375 452.8608 542.9318 448.56 543.0854 445.7952 L 543.0854 445.36 C 547.463 444.0288 552.5062 442.8512 556.3204 442.1088 C 556.8836 442.0064 557.242 441.4432 557.1396 440.88 Z M 534.791 451.299 C 533.9206 451.4526 533.4598 451.171 533.1526 450.3774 C 533.1526 450.3262 533.1014 450.2238 533.2294 450.019 C 533.9206 448.7646 537.0182 447.3566 540.935 446.051 C 540.423 447.7406 537.223 450.9406 534.791 451.299 Z" stroke-linecap="round"/>
</g>
<g transform="matrix(1.0068 0 0 1.0068 566.1358 438.7113)">
<path style="stroke: none; stroke-width: 0; stroke-dasharray: none; stroke-linecap: butt; stroke-dashoffset: 0; stroke-linejoin: miter; stroke-miterlimit: 2; fill: rgb(3,98,128); fill-rule: nonzero; opacity: 1;" transform=" translate(-565.7558, -438.3311)" d="M 559.94 433.17 C 560.1192 433.2724 560.2984 433.3236 560.4776 433.3236 C 560.836 433.3236 561.1688 433.1444 561.3736 432.8372 C 562.0392 431.7108 563.7032 430.4564 564.7016 429.6884 L 564.9832 429.4836 C 565.444 429.1252 565.5208 428.4852 565.1624 428.0244 C 564.8296 427.5636 564.164 427.4868 563.7032 427.8452 L 563.4472 428.0244 C 562.3464 428.8948 560.4776 430.3028 559.5816 431.762 C 559.3 432.2484 559.4536 432.8884 559.94 433.17 Z M 577.297 440.5684 C 577.0154 440.0564 576.3754 439.9028 575.889 440.1844 C 569.5658 443.8708 559.684 446.9684 556.843 446.9684 C 556.4078 446.9684 556.331 446.7892 556.2798 446.6868 C 555.7934 445.714 556.6894 442.9492 557.6622 441.7204 C 558.0206 441.2852 557.9438 440.6452 557.483 440.2868 C 557.0478 439.9284 556.3822 439.9796 556.0238 440.4404 C 554.923 441.8228 553.387 445.4836 554.3854 447.5828 C 554.8462 448.53 555.7166 449.042 556.843 449.042 C 560.299 449.042 570.667 445.6116 576.939 441.9764 C 577.4254 441.6948 577.6046 441.0548 577.2974 440.5684 Z" stroke-linecap="round"/>
</g>
<g transform="matrix(1.0068 0 0 1.0068 592.3253 450.9531)">
<path style="stroke: none; stroke-width: 0; stroke-dasharray: none; stroke-linecap: butt; stroke-dashoffset: 0; stroke-linejoin: miter; stroke-miterlimit: 2; fill: rgb(3,98,128); fill-rule: nonzero; opacity: 1;" transform=" translate(-591.7685, -450.4902)" d="M 609.93 440.98 C 609.8788 440.3912 609.3668 439.9816 608.8036 440.0584 C 602.0964 440.8264 596.6436 442.4648 592.2916 444.5128 C 592.4452 442.7208 592.2916 441.2616 591.7284 440.468 C 591.5236 440.212 591.2164 440.0584 590.9092 440.0584 C 590.5764 440.0584 590.2692 440.1864 590.0644 440.4424 C 589.7572 440.852 589.3732 441.2616 588.9636 441.6456 C 588.7844 441.1592 588.5284 440.6984 588.1444 440.3144 C 587.0948 439.2392 585.3028 438.676 582.9988 438.676 C 579.1332 438.676 573.6292 442.3624 573.6036 445.844 C 573.5524 446.6376 573.834 447.4056 574.3972 447.9944 C 574.8836 448.532 575.8308 449.172 577.4948 449.172 C 579.6452 449.172 586.4548 446.6888 590.2948 443.2072 C 590.2948 443.8728 590.218 444.692 590.0644 445.6392 C 581.4628 450.3752 577.9814 456.6212 578.1604 459.6932 C 578.2628 461.2804 579.2612 462.3044 580.7716 462.3044 C 582.8708 462.3044 586.0452 461.0244 589.0916 454.9828 C 590.3204 452.5764 591.3444 449.658 591.882 447.0468 C 595.9524 444.922 601.5588 442.9764 609.034 442.106 C 609.5972 442.0548 610.0068 441.5428 609.93 440.9796 Z M 577.495 447.0984 C 576.7782 447.0984 576.215 446.9192 575.9078 446.5864 C 575.7542 446.4072 575.6518 446.1768 575.6774 445.9464 L 575.6774 445.8696 C 575.6774 443.7704 579.9782 440.7496 582.999 440.7496 C 585.3286 440.7496 586.2758 441.3896 586.6598 441.748 C 586.9158 442.0296 587.0438 442.3112 587.0182 442.644 C 587.0182 442.7976 587.0438 442.9512 587.095 443.0792 C 583.6134 445.4344 578.8518 447.0984 577.495 447.0984 Z M 587.2486 454.0616 C 585.2774 457.9784 582.8966 460.2312 580.7718 460.2312 C 580.5414 460.2312 580.2854 460.2312 580.2342 459.5656 C 580.1574 458.004 581.7446 454.2664 586.5574 450.452 C 587.3766 449.812 588.3238 449.1464 589.4246 448.4552 C 588.9126 450.2216 588.2214 452.1672 587.2486 454.0616 Z" stroke-linecap="round"/>
</g>
<g transform="matrix(1.0068 0 0 1.0068 621.8163 443.8608)">
<path style="stroke: none; stroke-width: 0; stroke-dasharray: none; stroke-linecap: butt; stroke-dashoffset: 0; stroke-linejoin: miter; stroke-miterlimit: 2; fill: rgb(3,98,128); fill-rule: nonzero; opacity: 1;" transform=" translate(-621.0603, -443.4459)" d="M 634.65 440.47 C 634.3172 440.0092 633.6516 439.9068 633.1908 440.2652 C 629.8628 442.7484 623.8212 446.6652 621.7728 446.6652 C 621.3888 446.6652 621.2096 446.4604 621.1328 444.4636 C 621.056 442.8252 620.9536 440.0604 618.1632 440.0604 C 615.3216 440.0604 612.0192 442.7484 610.048 444.3612 C 609.8176 444.566 609.5616 444.7708 609.3312 444.95 C 609.5104 443.7724 611.0464 440.9308 612.0192 439.9068 C 612.4032 439.4972 612.4032 438.8316 611.968 438.4476 C 611.5584 438.038 610.8928 438.0636 610.5088 438.4732 C 609.7664 439.2668 606.4896 443.926 607.4368 446.1276 C 607.744 446.8444 608.4096 447.254 609.28 447.254 C 609.8176 447.254 610.2016 446.9212 611.3792 445.974 C 613.0176 444.6172 616.064 442.134 618.1632 442.134 C 618.7264 442.134 618.9568 442.3388 619.0592 444.566 C 619.1104 446.1276 619.2128 448.7388 621.7728 448.7388 C 622.336 448.7388 624.0512 448.7388 629.5296 445.2828 C 632.1408 443.6188 634.3424 441.9804 634.4448 441.9292 C 634.9056 441.5708 634.9824 440.9308 634.6496 440.47 Z" stroke-linecap="round"/>
</g>
<g transform="matrix(1.0068 0 0 1.0068 646.3974 442.5518)">
<path style="stroke: none; stroke-width: 0; stroke-dasharray: none; stroke-linecap: butt; stroke-dashoffset: 0; stroke-linejoin: miter; stroke-miterlimit: 2; fill: rgb(3,98,128); fill-rule: nonzero; opacity: 1;" transform=" translate(-645.4754, -442.1456)" d="M 657.53 440.52 C 657.2228 440.0336 656.5828 439.9056 656.0964 440.2128 C 656.0196 440.2896 647.4692 445.896 638.3554 445.896 C 637.2546 445.896 636.3842 445.6656 635.8978 445.2048 C 635.5138 444.8464 635.309 444.3088 635.309 443.6176 L 635.309 443.3104 L 635.4114 443.336 C 638.0482 444.0272 640.173 442.8496 641.2482 441.5184 C 642.2722 440.2896 642.5794 438.8048 642.0674 437.7296 C 641.6578 436.8336 640.7362 436.3216 639.5586 436.3216 C 636.205 436.3216 633.2354 440.392 633.2354 443.6176 C 633.2354 444.8976 633.6706 445.9728 634.4898 446.7152 C 635.3858 447.56 636.6914 447.9696 638.3554 447.9696 C 648.109 447.9696 656.8894 442.184 657.2484 441.9536 C 657.7348 441.6208 657.8628 440.9808 657.53 440.52 Z M 639.559 438.3952 C 639.7126 438.3952 640.0966 438.4208 640.199 438.6 C 640.327 438.856 640.2246 439.5216 639.6614 440.2128 C 639.3286 440.5968 638.0742 441.8768 635.9238 441.3392 L 635.8982 441.3392 C 636.7174 439.7264 638.2278 438.3952 639.559 438.3952 Z" stroke-linecap="round"/>
</g>
<g transform="matrix(1.0068 0 0 1.0068 662.982 441.3541)">
<path style="stroke: none; stroke-width: 0; stroke-dasharray: none; stroke-linecap: butt; stroke-dashoffset: 0; stroke-linejoin: miter; stroke-miterlimit: 2; fill: rgb(3,98,128); fill-rule: nonzero; opacity: 1;" transform=" translate(-661.948, -440.956)" d="M 668.07 440.06 C 667.6604 440.06 667.4812 439.5736 667.2764 437.884 C 667.0716 436.476 666.79 434.3512 664.8444 434.3512 C 663.3852 434.3512 661.5164 436.22 659.7244 438.5752 C 659.878 437.9608 659.9548 437.5512 659.9548 437.2696 C 659.9292 436.7064 659.4428 436.2456 658.854 436.2712 C 658.2908 436.2968 657.8556 436.7576 657.8812 437.3464 C 657.83 437.9608 656.678 441.084 655.9612 442.9528 C 655.3212 444.668 654.9372 445.7688 654.8092 446.2808 C 654.6812 446.7928 654.9372 447.3048 655.4236 447.484 C 655.5516 447.5352 655.6796 447.5608 655.8076 447.5608 C 656.166 447.5608 656.5244 447.3816 656.7036 447.0488 C 660.1852 440.8536 663.7436 436.5268 664.8188 436.4508 C 665.0236 436.6812 665.126 437.6028 665.2028 438.166 C 665.4076 439.6508 665.7404 442.134 668.07 442.134 C 668.6588 442.134 669.1196 441.6476 669.1196 441.0844 C 669.1196 440.5212 668.6588 440.0604 668.07 440.0604 Z" stroke-linecap="round"/>
</g>
<g transform="matrix(1.0068 0 0 1.0068 677.3384 445.8361)">
<path style="stroke: none; stroke-width: 0; stroke-dasharray: none; stroke-linecap: butt; stroke-dashoffset: 0; stroke-linejoin: miter; stroke-miterlimit: 2; fill: rgb(3,98,128); fill-rule: nonzero; opacity: 1;" transform=" translate(-676.2074, -445.4077)" d="M 689.24 440.88 C 689.1376 440.3168 688.6 439.9584 688.0368 440.0608 C 687.9856 440.0864 682.584 441.136 676.9518 442.6976 C 676.0558 442.9536 675.211 443.184 674.443 443.4144 C 673.7518 442.5184 672.6766 441.904 671.8062 441.4176 C 671.1406 441.0592 670.2446 440.5472 670.1678 440.1888 C 670.1678 440.1376 670.347 439.9328 670.859 439.7536 C 671.9086 439.3696 673.1886 439.4208 673.4958 439.5744 C 673.9566 439.9328 674.5966 439.856 674.955 439.4208 C 675.3134 438.9856 675.2366 438.32 674.8014 437.9616 C 673.675 437.04 670.7566 437.3216 669.323 438.192 C 668.3502 438.7808 667.915 439.6768 668.1454 440.6496 C 668.427 441.904 669.6302 442.5696 670.7822 443.2352 C 671.371 443.5424 671.8574 443.8496 672.2414 444.1312 C 664.843 446.64 663.8702 448.3808 663.5118 448.9952 C 663.1278 449.6864 663.051 450.4032 663.307 451.0944 C 663.8702 452.6048 665.0222 453.424 666.507 453.424 C 666.7374 453.424 666.9678 453.3984 667.1982 453.3728 C 670.475 452.8608 675.0318 448.56 675.1854 445.7952 L 675.1854 445.36 C 679.563 444.0288 684.6062 442.8512 688.4204 442.1088 C 688.9836 442.0064 689.342 441.4432 689.2396 440.88 Z M 666.891 451.299 C 666.0206 451.4526 665.5598 451.171 665.2526 450.3774 C 665.2526 450.3262 665.2014 450.2238 665.3294 450.019 C 666.0206 448.7646 669.1182 447.3566 673.035 446.051 C 672.523 447.7406 669.323 450.9406 666.891 451.299 Z" stroke-linecap="round"/>
</g>
<g transform="matrix(1.0068 0 0 1.0068 307.6199 335.6844)">
<path style="stroke: none; stroke-width: 0; stroke-dasharray: none; stroke-linecap: butt; stroke-dashoffset: 0; stroke-linejoin: miter; stroke-miterlimit: 2; fill: rgb(64,95,125); fill-rule: nonzero; opacity: 1;" transform=" translate(-308.986, -336)" d="M 353.05 386.4 L 360.25 386.4 L 360.106 285.6 L 354.058 285.6 L 308.986 363.504 L 263.914 285.6 L 257.722 285.6 L 257.722 386.4 L 264.922 386.4 L 264.922 300.432 L 307.114 373.008 L 310.714 373.008 L 352.906 300.144 Z" stroke-linecap="round"/>
</g>
<g transform="matrix(1.0068 0 0 1.0068 523.5161 335.6824)">
<path style="stroke: none; stroke-width: 0; stroke-dasharray: none; stroke-linecap: butt; stroke-dashoffset: 0; stroke-linejoin: miter; stroke-miterlimit: 2; fill: rgb(64,95,125); fill-rule: nonzero; opacity: 1;" transform=" translate(-523.424, -335.998)" d="M 551 294.67 C 543.8 288.622 533.864 285.598 521.192 285.598 L 485.048 285.598 L 485.048 292.222 L 521.192 292.222 C 531.848 292.222 540.056 294.67 545.816 299.422 C 551.432 304.174 554.312 310.942 554.312 319.582 C 554.312 328.366 551.432 335.134 545.816 339.742 C 540.056 344.494 531.848 346.798 521.192 346.798 L 485.048 346.798 L 485.048 386.398 L 492.392 386.398 L 492.392 353.422 L 521.192 353.422 C 533.864 353.422 543.8 350.542 551 344.494 C 558.2 338.446 561.8 330.238 561.8 319.582 C 561.8 309.07 558.2 300.718 551 294.67 Z" stroke-linecap="round"/>
</g>
<g transform="matrix(1.0068 0 0 1.0068 625.7365 335.6824)">
<path style="stroke: none; stroke-width: 0; stroke-dasharray: none; stroke-linecap: butt; stroke-dashoffset: 0; stroke-linejoin: miter; stroke-miterlimit: 2; fill: rgb(64,95,125); fill-rule: nonzero; opacity: 1;" transform=" translate(-624.954, -335.998)" d="M 652.53 294.67 C 645.33 288.622 635.394 285.598 622.722 285.598 L 586.578 285.598 L 586.578 292.222 L 622.722 292.222 C 633.378 292.222 641.586 294.67 647.346 299.422 C 652.962 304.174 655.842 310.942 655.842 319.582 C 655.842 328.366 652.962 335.134 647.346 339.742 C 641.586 344.494 633.378 346.798 622.722 346.798 L 586.578 346.798 L 586.578 386.398 L 593.922 386.398 L 593.922 353.422 L 622.722 353.422 C 635.394 353.422 645.33 350.542 652.53 344.494 C 659.73 338.446 663.33 330.238 663.33 319.582 C 663.33 309.07 659.73 300.718 652.53 294.67 Z" stroke-linecap="round"/>
</g>
<g transform="matrix(1.0068 0 0 1.0068 717.6412 335.6844)">
<path style="stroke: none; stroke-width: 0; stroke-dasharray: none; stroke-linecap: butt; stroke-dashoffset: 0; stroke-linejoin: miter; stroke-miterlimit: 2; fill: rgb(64,95,125); fill-rule: nonzero; opacity: 1;" transform=" translate(-716.238, -336)" d="M 719.91 285.6 L 712.566 285.6 L 666.198 386.4 L 674.118 386.4 L 716.166 293.664 L 758.358 386.4 L 766.278 386.4 Z" stroke-linecap="round"/>
</g>
<g transform="matrix(1.0068 0 0 1.0068 421.5392 336.689)">
<path style="stroke: none; stroke-width: 0.5663; stroke-dasharray: none; stroke-linecap: butt; stroke-dashoffset: 0; stroke-linejoin: miter; stroke-miterlimit: 4; fill: rgb(129,190,206); fill-rule: nonzero; opacity: 1;" transform=" translate(-422.1359, -336.9978)" d="M 422.13 286.58 C 422.121 286.58 413.7619 303.791 403.554 324.827 C 393.345 345.863 384.934 363.199 384.86 363.351 C 384.7636 363.55 384.7416 363.6193 384.7806 363.5985 C 384.8105 363.5828 393.2268 359.2468 403.4836 353.9636 L 422.1326 344.357 L 440.3546 353.7427 C 450.3766 358.9048 458.7916 363.2411 459.0566 363.3793 L 459.5368 363.6299 L 459.4023 363.3522 C 459.3287 363.1993 450.9193 345.8592 440.7093 324.8242 C 430.5043 303.7892 422.1463 286.5772 422.1353 286.5772 Z M 422.1583 354.575 C 422.1341 354.567 413.4431 358.7535 402.8463 363.8786 C 392.2483 369.0035 383.5603 373.2145 383.5393 373.236 C 383.5179 373.2577 382.2581 376.4277 380.7402 380.2807 C 379.2222 384.1336 377.9682 387.3169 377.954 387.3548 C 377.9313 387.4134 377.9975 387.3901 378.4061 387.1939 C 378.6694 387.0676 388.6161 382.2232 400.5091 376.4279 L 422.1331 365.8919 L 444.2111 376.6479 C 456.3541 382.5634 466.3001 387.4099 466.3131 387.4169 C 466.326 387.4249 466.3241 387.3983 466.3081 387.3583 C 466.293 387.3183 465.0382 384.1329 463.5203 380.2802 C 462.0024 376.427 460.736 373.2525 460.7064 373.2248 C 460.6771 373.1974 452.0014 368.9931 441.4274 363.8821 C 430.8534 358.771 422.1824 354.583 422.1584 354.5745 Z" stroke-linecap="round"/>
</g>
</svg>