<svg xmlns="http://www.w3.org/2000/svg" xmlns:xlink="http://www.w3.org/1999/xlink" version="1.1" width="1024" height="768" viewBox="0 0 1024 768" xml:space="preserve">
<desc>Created with Fabric.js 6.7.1</desc>
<defs>
</defs>
<g transform="matrix(1 0 0 1 512 384)">
<path style="stroke: none; stroke-width: 1; stroke-dasharray: none; stroke-linecap: butt; stroke-dashoffset: 0; stroke-linejoin: miter; stroke-miterlimit: 4; fill: rgb(236,237,231); fill-rule: nonzero; opacity: 1;" transform=" translate(-512, -384)" d="M 256 284.93 L 256 386.42 L 263.25 386.42 L 263.25 299.87 L 305.73 372.93 L 309.35 372.93 L 351.83 299.58 L 351.97 386.42 L 359.22 386.42 L 359.08 284.93 L 352.99 284.93 L 307.61 363.37 L 262.23 284.93 L 256 284.93 Z M 484.86 284.93 L 484.86 291.6 L 521.25 291.6 C 531.98 291.6 540.24 294.07 546.04 298.85 C 551.7 303.64 554.6 310.45 554.6 319.15 C 554.6 327.99 551.7 334.81 546.04 339.45 C 540.24 344.23 531.98 346.55 521.25 346.55 L 484.86 346.55 L 484.86 386.42 L 492.26 386.42 L 492.26 353.22 L 521.25 353.22 C 534.01 353.22 544.01 350.32 551.26 344.23 C 558.51 338.14 562.13 329.88 562.13 319.15 C 562.13 308.57 558.51 300.16 551.26 294.07 C 544.01 287.98 534.01 284.93 521.25 284.93 L 484.86 284.93 Z M 587.08 284.93 L 587.08 291.6 L 623.47 291.6 C 634.2 291.6 642.46 294.07 648.26 298.85 C 653.92 303.64 656.81 310.45 656.81 319.15 C 656.81 327.99 653.92 334.81 648.26 339.45 C 642.46 344.23 634.2 346.55 623.47 346.55 L 587.08 346.55 L 587.08 386.42 L 594.48 386.42 L 594.48 353.22 L 623.47 353.22 C 636.23 353.22 646.23 350.32 653.48 344.23 C 660.73 338.14 664.35 329.88 664.35 319.15 C 664.35 308.57 660.73 300.16 653.48 294.07 C 646.23 287.98 636.23 284.93 623.47 284.93 L 587.08 284.93 Z M 713.92 284.93 L 667.24 386.42 L 675.22 386.42 L 717.55 293.05 L 760.03 386.42 L 768 386.42 L 721.32 284.93 L 713.92 284.93 Z M 421.52 285.91 L 421.52 285.92 C 421.51 285.92 413.09 303.24 402.81 324.42 C 392.54 345.6 384.07 363.05 383.99 363.21 C 383.9 363.41 383.87 363.48 383.91 363.46 C 383.94 363.44 392.42 359.07 402.74 353.76 L 421.52 344.08 L 439.86 353.53 C 449.95 358.73 458.43 363.1 458.69 363.24 L 459.18 363.49 L 459.04 363.21 C 458.97 363.06 450.5 345.6 440.22 324.42 C 429.95 303.24 421.53 285.91 421.52 285.91 Z M 421.54 354.37 C 421.52 354.36 412.77 358.58 402.1 363.74 C 391.43 368.9 382.69 373.14 382.66 373.16 C 382.64 373.18 381.37 376.37 379.85 380.25 C 378.32 384.13 377.06 387.33 377.04 387.37 C 377.02 387.43 377.08 387.41 377.5 387.21 C 377.76 387.08 387.78 382.21 399.75 376.37 L 421.52 365.77 L 443.75 376.59 C 455.97 382.55 465.98 387.43 466 387.44 C 466.01 387.44 466.01 387.42 465.99 387.38 C 465.98 387.34 464.72 384.13 463.19 380.25 C 461.66 376.37 460.38 373.17 460.35 373.15 C 460.32 373.12 451.59 368.89 440.95 363.74 C 430.3 358.6 421.57 354.38 421.54 354.37 Z M 471.35 413 C 471.08 413.01 470.82 413.12 470.62 413.32 C 469.18 414.84 463.33 421.83 458.12 429.33 C 454.75 434.19 452.68 437.79 451.4 440.49 C 451.11 440.38 450.77 440.41 450.48 440.59 C 450.41 440.67 441.8 446.31 432.62 446.31 C 431.51 446.31 430.64 446.08 430.15 445.62 C 429.76 445.26 429.55 444.72 429.55 444.02 L 429.55 443.71 L 429.66 443.74 C 432.31 444.43 434.45 443.25 435.53 441.91 C 436.56 440.67 436.87 439.17 436.36 438.09 C 435.95 437.19 435.02 436.67 433.83 436.67 C 431.64 436.67 429.62 438.4 428.47 440.49 C 428.29 440.42 428.1 440.4 427.9 440.44 C 420.58 442.01 416.84 440.05 415.78 438.66 C 415.6 438.43 415.32 438.27 415.04 438.25 C 414.73 438.22 414.44 438.32 414.24 438.53 C 412.15 440.46 404.06 445.05 401.17 445.05 C 400.58 445.05 400.4 444.82 400.27 444.59 C 399.78 443.58 400.42 441.29 400.94 440.64 C 401.3 440.2 401.22 439.56 400.78 439.2 C 400.35 438.84 399.68 438.89 399.31 439.35 C 399.1 439.62 398.87 440.03 398.67 440.51 C 398.3 440.35 397.86 440.41 397.55 440.69 C 395.93 442.14 390.98 445.9 387.53 445.9 C 386.55 445.9 385.83 445.64 385.34 445.1 C 384.38 444.02 384.59 442.16 384.59 442.14 C 384.64 441.7 384.38 441.26 383.97 441.05 C 383.84 441 383.71 440.98 383.56 440.98 C 383.74 440.59 383.66 440.15 383.38 439.84 C 382.14 438.56 380.29 438.12 378.15 438.61 C 376.76 438.95 375.29 439.66 373.98 440.61 C 373.81 440.5 373.61 440.44 373.39 440.44 C 372.98 440.44 372.79 439.95 372.59 438.25 C 372.38 436.83 372.1 434.69 370.14 434.69 C 368.67 434.69 366.79 436.57 364.99 438.94 C 365.14 438.32 365.22 437.91 365.22 437.63 C 365.19 437.06 364.7 436.6 364.11 436.62 C 363.54 436.65 363.11 437.11 363.13 437.71 C 363.08 438.32 361.92 441.47 361.2 443.35 C 360.55 445.08 360.17 446.18 360.04 446.7 C 359.91 447.21 360.17 447.73 360.66 447.91 C 360.79 447.96 360.91 447.99 361.04 447.99 C 361.4 447.99 361.76 447.81 361.95 447.47 C 365.45 441.24 369.03 436.88 370.12 436.8 C 370.32 437.03 370.42 437.96 370.5 438.53 C 370.66 439.71 370.91 441.52 372.16 442.22 C 370.47 444.08 370.03 445.92 371.03 447.21 C 371.47 447.76 372.27 448.4 373.79 448.43 C 373.82 448.45 373.87 448.45 373.89 448.45 C 376.42 448.45 380 446.72 382.71 444.35 C 382.89 445.08 383.2 445.82 383.77 446.47 C 384.67 447.47 385.93 447.99 387.53 447.99 C 391.46 447.99 396.14 444.54 398.04 442.99 C 397.96 443.88 398.04 444.77 398.39 445.49 C 398.9 446.54 399.88 447.14 401.17 447.14 C 404.42 447.14 411.79 443.12 414.88 440.72 C 415.58 441.31 416.71 442.06 418.52 442.55 C 421.05 443.28 424.12 443.29 427.63 442.63 C 427.53 443.1 427.47 443.57 427.47 444.02 C 427.47 445.31 427.9 446.39 428.73 447.14 C 429.63 447.99 430.95 448.4 432.62 448.4 C 440.32 448.4 447.4 444.83 450.28 443.17 C 449.1 446.53 449.63 447.8 449.88 448.4 C 450.26 449.3 451.19 450.38 453.46 450.38 C 457.04 450.38 460.99 449.02 465.19 446.29 C 468.25 444.28 470.29 442.29 470.37 442.21 C 470.78 441.8 470.78 441.16 470.37 440.75 C 469.98 440.33 469.31 440.33 468.9 440.72 C 468.82 440.8 461.12 448.3 453.46 448.3 C 452.09 448.3 451.89 447.78 451.79 447.58 C 451.35 446.57 451.27 442.86 459.83 430.51 C 464.98 423.12 470.7 416.23 472.12 414.77 C 472.53 414.35 472.51 413.68 472.09 413.27 C 471.89 413.08 471.62 412.99 471.35 413 Z M 372.65 413 C 372.39 413.03 372.14 413.16 371.96 413.38 C 370.05 415.67 367.78 418.92 365.33 422.78 C 352.99 422.96 340.9 423.5 334.48 424.1 C 333.92 424.15 333.48 424.66 333.55 425.23 C 333.61 425.77 334.04 426.18 334.59 426.18 L 334.69 426.18 C 340.69 425.62 352.14 425.1 364.02 424.89 C 351.34 445.44 334.51 479.77 333.66 481.57 C 333.4 482.09 333.61 482.71 334.12 482.96 C 334.28 483.04 334.43 483.07 334.59 483.07 C 334.97 483.07 335.33 482.86 335.51 482.47 C 335.75 482.03 353.71 445.36 366.49 424.87 C 376.93 424.71 387.42 424.79 394.66 425.28 C 395.23 425.31 395.75 424.87 395.77 424.3 C 395.82 423.74 395.38 423.22 394.79 423.19 C 387.73 422.73 377.81 422.63 367.86 422.73 C 369.95 419.46 371.91 416.7 373.55 414.71 C 373.92 414.25 373.86 413.61 373.43 413.25 C 373.19 413.05 372.92 412.97 372.65 413 Z M 513.1 421.59 C 512.84 421.62 512.58 421.74 512.4 421.96 C 512.32 422.03 512.22 422.16 512.06 422.34 C 511.13 423.43 510.26 424.46 509.43 425.46 C 505.7 429.87 499.41 437.27 496.5 440.41 C 496.47 440.2 496.39 440 496.24 439.84 C 495 438.56 493.15 438.12 491.01 438.61 C 489.33 438.99 487.53 439.97 486.03 441.24 C 483.53 443.4 482.71 445.69 483.89 447.21 C 484.28 447.7 485.03 448.32 486.34 448.4 L 486.62 448.4 C 489.74 448.4 494.36 445.59 497.14 442.76 L 497.94 441.93 C 496.63 444.9 497.09 445.93 497.32 446.44 C 497.63 447.11 498.35 447.88 499.97 447.88 C 505.49 447.88 509.75 445.46 512.04 443.77 L 512.04 444.02 C 512.04 445.31 512.47 446.39 513.3 447.14 C 514.2 447.99 515.51 448.4 517.19 448.4 C 527.01 448.4 535.85 442.58 536.21 442.34 C 536.38 442.22 536.51 442.07 536.59 441.89 C 537.1 442.63 538 443.13 538.86 443.63 C 539.45 443.94 539.94 444.25 540.33 444.54 C 532.88 447.06 531.9 448.81 531.54 449.43 C 531.15 450.13 531.08 450.85 531.33 451.54 C 531.9 453.07 533.06 453.89 534.56 453.89 C 534.79 453.89 535.02 453.86 535.25 453.84 C 538.55 453.32 543.14 448.99 543.29 446.21 L 543.29 445.77 C 547.18 444.59 551.58 443.53 555.2 442.78 C 554.48 444.45 553.99 446.59 554.67 448.01 C 555.13 448.97 556.01 449.48 557.14 449.48 C 560.21 449.48 568.67 446.8 574.96 443.66 C 574.38 444.5 574.03 445.39 574.03 446.26 C 573.97 447.06 574.26 447.83 574.82 448.43 C 575.31 448.97 576.27 449.61 577.94 449.61 C 580.11 449.61 586.96 447.11 590.83 443.61 C 590.83 444.28 590.75 445.1 590.6 446.05 C 581.94 450.82 578.43 457.11 578.61 460.21 C 578.72 461.8 579.72 462.83 581.24 462.83 C 583.36 462.83 586.55 461.55 589.62 455.46 C 590.86 453.04 591.89 450.1 592.43 447.47 C 596.36 445.42 601.71 443.54 608.77 442.62 C 608.09 444.04 607.66 445.54 608.09 446.54 C 608.4 447.27 609.07 447.68 609.94 447.68 C 610.48 447.68 610.87 447.34 612.05 446.39 C 613.7 445.02 616.77 442.52 618.88 442.52 C 619.45 442.52 619.68 442.73 619.79 444.97 C 619.84 446.54 619.94 449.17 622.52 449.17 C 623.09 449.17 624.81 449.17 630.33 445.69 C 631.97 444.65 633.22 443.77 634.13 443.13 C 634.08 443.43 634.05 443.73 634.05 444.02 C 634.05 445.31 634.49 446.39 635.32 447.14 C 636.22 447.99 637.54 448.4 639.21 448.4 C 647.06 448.4 654.28 444.68 657.04 443.07 C 657.01 443.16 656.97 443.27 656.94 443.35 C 656.29 445.08 655.91 446.18 655.78 446.7 C 655.65 447.21 655.9 447.73 656.39 447.91 C 656.52 447.96 656.65 447.99 656.78 447.99 C 657.14 447.99 657.5 447.81 657.68 447.47 C 661.19 441.24 664.77 436.88 665.85 436.8 C 666.06 437.03 666.16 437.96 666.24 438.53 C 666.45 440.02 666.78 442.52 669.13 442.52 C 669.41 442.52 669.67 442.41 669.86 442.23 C 670.38 442.79 671.13 443.21 671.86 443.63 C 672.45 443.94 672.94 444.25 673.32 444.54 C 665.88 447.06 664.9 448.81 664.54 449.43 C 664.15 450.13 664.07 450.85 664.33 451.54 C 664.9 453.07 666.06 453.89 667.55 453.89 C 667.78 453.89 668.01 453.86 668.25 453.84 C 671.55 453.32 676.13 448.99 676.29 446.21 L 676.29 445.77 C 680.69 444.43 685.77 443.25 689.61 442.5 C 690.18 442.39 690.54 441.83 690.44 441.26 C 690.33 440.69 689.79 440.33 689.23 440.44 C 689.17 440.46 683.74 441.52 678.07 443.09 C 677.16 443.35 676.31 443.58 675.54 443.81 C 674.85 442.91 673.76 442.29 672.88 441.8 C 672.21 441.44 671.31 440.93 671.24 440.56 C 671.24 440.51 671.42 440.31 671.93 440.13 C 672.99 439.74 674.28 439.79 674.59 439.95 C 675.05 440.31 675.69 440.23 676.05 439.79 C 676.42 439.35 676.34 438.68 675.9 438.32 C 674.77 437.39 671.83 437.68 670.38 438.55 C 669.61 439.03 669.18 439.69 669.15 440.44 L 669.13 440.44 C 668.71 440.44 668.53 439.95 668.33 438.25 C 668.12 436.83 667.84 434.69 665.88 434.69 C 664.41 434.69 662.53 436.57 660.72 438.94 C 660.88 438.32 660.96 437.91 660.96 437.63 C 660.93 437.06 660.44 436.6 659.85 436.62 C 659.28 436.65 658.84 437.11 658.87 437.71 C 658.84 438.05 658.45 439.21 658 440.49 C 657.7 440.38 657.36 440.41 657.07 440.59 C 656.99 440.67 648.39 446.31 639.21 446.31 C 638.1 446.31 637.23 446.08 636.74 445.62 C 636.35 445.26 636.14 444.72 636.14 444.02 L 636.14 443.71 L 636.25 443.74 C 638.9 444.43 641.04 443.25 642.12 441.91 C 643.15 440.67 643.46 439.17 642.95 438.09 C 642.53 437.19 641.61 436.67 640.42 436.67 C 638.23 436.67 636.2 438.41 635.05 440.51 C 634.72 440.37 634.32 440.4 634.01 440.64 C 630.66 443.14 624.58 447.09 622.52 447.09 C 622.13 447.09 621.95 446.88 621.88 444.87 C 621.8 443.22 621.69 440.44 618.88 440.44 C 616.02 440.44 612.7 443.14 610.71 444.77 C 610.48 444.97 610.23 445.18 609.99 445.36 C 610.17 444.17 611.72 441.31 612.7 440.28 C 613.09 439.87 613.09 439.2 612.65 438.81 C 612.24 438.4 611.57 438.43 611.18 438.84 C 610.95 439.08 610.47 439.7 609.96 440.5 C 609.81 440.44 609.64 440.41 609.46 440.44 C 602.71 441.21 597.22 442.86 592.84 444.92 C 592.99 443.12 592.84 441.65 592.27 440.85 C 592.07 440.59 591.76 440.44 591.45 440.44 C 591.11 440.44 590.8 440.56 590.6 440.82 C 590.29 441.23 589.9 441.65 589.49 442.04 C 589.31 441.55 589.05 441.08 588.66 440.69 C 587.61 439.61 585.8 439.04 583.48 439.04 C 581.7 439.04 579.56 439.83 577.77 441.02 C 577.76 441 577.75 440.97 577.74 440.95 C 577.45 440.44 576.81 440.28 576.32 440.56 C 569.95 444.28 560.01 447.39 557.14 447.39 C 556.71 447.39 556.63 447.21 556.58 447.11 C 556.09 446.13 556.99 443.35 557.97 442.11 C 558.33 441.67 558.25 441.03 557.79 440.67 C 557.51 440.43 557.13 440.38 556.79 440.49 C 556.62 440.42 556.43 440.4 556.23 440.44 C 556.18 440.46 550.74 441.52 545.07 443.09 C 544.17 443.35 543.32 443.58 542.54 443.81 C 541.85 442.91 540.77 442.29 539.89 441.8 C 539.22 441.44 538.32 440.93 538.24 440.56 C 538.24 440.51 538.42 440.31 538.94 440.13 C 539.99 439.74 541.28 439.79 541.59 439.95 C 542.06 440.31 542.7 440.23 543.06 439.79 C 543.42 439.35 543.34 438.68 542.91 438.32 C 541.77 437.39 538.83 437.68 537.39 438.55 C 536.57 439.05 536.13 439.77 536.15 440.57 C 535.82 440.38 535.4 440.37 535.05 440.59 C 534.97 440.67 526.36 446.31 517.19 446.31 C 516.08 446.31 515.2 446.08 514.71 445.62 C 514.33 445.26 514.12 444.72 514.12 444.02 L 514.12 443.71 L 514.22 443.74 C 516.88 444.43 519.02 443.25 520.1 441.91 C 521.13 440.67 521.44 439.17 520.93 438.09 C 520.51 437.19 519.59 436.67 518.4 436.67 C 516.23 436.67 514.22 438.37 513.06 440.45 C 512.83 440.47 512.62 440.57 512.45 440.75 C 512.4 440.8 507.35 445.8 500 445.8 C 499.74 445.8 499.33 445.77 499.23 445.56 C 499.07 445.26 498.27 442.19 511.01 426.83 C 512.66 424.87 513.84 423.5 514 423.32 C 514.36 422.86 514.31 422.21 513.87 421.83 C 513.65 421.65 513.37 421.57 513.1 421.59 Z M 564.63 427.92 C 564.43 427.93 564.23 428.01 564.05 428.14 L 563.79 428.32 C 562.69 429.2 560.8 430.62 559.9 432.09 C 559.62 432.58 559.77 433.22 560.26 433.5 C 560.44 433.61 560.62 433.66 560.8 433.66 C 561.17 433.66 561.5 433.48 561.71 433.17 C 562.38 432.03 564.05 430.77 565.06 430 L 565.34 429.79 C 565.81 429.43 565.88 428.79 565.52 428.32 C 565.31 428.03 564.97 427.89 564.63 427.92 Z M 433.83 438.76 C 433.99 438.76 434.37 438.79 434.48 438.97 C 434.61 439.22 434.5 439.9 433.94 440.59 C 433.6 440.98 432.34 442.27 430.17 441.72 L 430.15 441.72 C 430.97 440.1 432.49 438.76 433.83 438.76 Z M 518.4 438.76 C 518.56 438.76 518.94 438.79 519.04 438.97 C 519.17 439.22 519.07 439.9 518.5 440.59 C 518.17 440.98 516.91 442.27 514.74 441.72 L 514.71 441.72 C 515.54 440.1 517.06 438.76 518.4 438.76 Z M 640.42 438.76 C 640.58 438.76 640.96 438.79 641.07 438.97 C 641.2 439.22 641.09 439.9 640.53 440.59 C 640.19 440.98 638.93 442.27 636.76 441.72 L 636.74 441.72 C 637.56 440.1 639.08 438.76 640.42 438.76 Z M 379.85 440.49 C 380.62 440.49 381.32 440.72 381.86 441.26 C 382.04 441.47 382.27 441.57 382.53 441.6 C 380.23 444.15 376.24 446.37 373.89 446.37 C 373.87 446.37 373.84 446.36 373.82 446.34 C 373.28 446.34 372.89 446.21 372.68 445.93 C 372.35 445.49 372.97 444.17 374.54 442.83 C 375.93 441.62 378.07 440.49 379.85 440.49 Z M 492.71 440.49 C 493.48 440.49 494.18 440.72 494.72 441.26 C 494.9 441.47 495.13 441.57 495.36 441.6 C 492.55 444.3 488.56 446.44 486.47 446.31 C 485.82 446.29 485.62 446.03 485.54 445.93 C 485.21 445.49 485.82 444.17 487.4 442.83 C 488.79 441.62 490.93 440.49 492.71 440.49 Z M 583.48 441.13 C 585.83 441.13 586.78 441.78 587.17 442.14 C 587.43 442.42 587.56 442.7 587.53 443.04 C 587.53 443.19 587.56 443.35 587.61 443.48 C 584.1 445.85 579.31 447.52 577.94 447.52 C 577.22 447.52 576.65 447.34 576.35 447.01 C 576.19 446.83 576.09 446.6 576.11 446.37 L 576.11 446.29 C 576.11 444.17 580.44 441.13 583.48 441.13 Z M 541.13 446.47 C 540.61 448.17 537.39 451.39 534.94 451.75 C 534.07 451.9 533.6 451.62 533.29 450.82 C 533.29 450.77 533.24 450.67 533.37 450.46 C 534.07 449.2 537.19 447.78 541.13 446.47 Z M 674.12 446.47 C 673.61 448.17 670.39 451.39 667.94 451.75 C 667.06 451.9 666.6 451.62 666.29 450.82 C 666.29 450.77 666.24 450.67 666.37 450.46 C 667.06 449.2 670.18 447.78 674.12 446.47 Z M 589.95 448.89 C 589.44 450.67 588.74 452.63 587.76 454.54 C 585.78 458.48 583.38 460.75 581.24 460.75 C 581.01 460.75 580.75 460.75 580.7 460.08 C 580.62 458.5 582.22 454.74 587.07 450.9 C 587.89 450.26 588.84 449.59 589.95 448.89 Z" stroke-linecap="round"/>
</g>
</svg>