<svg xmlns="http://www.w3.org/2000/svg" width="1024" height="768" viewBox="0 0 1024 768"><g transform="translate(-1024 0)"><path id="path579557" d="m395.58 422.93c-7.0144-0.4608-16.87-0.5632-26.752-0.4608 2.0736-3.2512 4.0192-5.9904 5.6576-7.9616 0.3584-0.4608 0.3072-1.1008-0.128-1.4592-0.4608-0.384-1.1008-0.3072-1.4592 0.128-1.8944 2.2784-4.1472 5.504-6.5792 9.344-12.262 0.1792-24.269 0.7168-30.643 1.3056-0.5632 0.0512-0.9984 0.5632-0.9216 1.1264 0.0512 0.5376 0.4864 0.9472 1.024 0.9472h0.1024c5.9648-0.5632 17.331-1.0752 29.133-1.28-12.595 20.403-29.312 54.502-30.157 56.294-0.256 0.512-0.0512 1.1264 0.4608 1.3824 0.1536 0.0768 0.3072 0.1024 0.4608 0.1024 0.384 0 0.7424-0.2048 0.9216-0.5888 0.2304-0.4352 18.074-36.864 30.771-57.216 10.368-0.1536 20.787-0.0768 27.981 0.4096 0.5632 0.0256 1.0752-0.4096 1.1008-0.9728 0.0512-0.5632-0.384-1.0752-0.9728-1.1008z" stroke-miterlimit="2" fill="#036280" stroke="none" stroke-width="0" transform="matrix(1.0068,0,0,1.0068,-3.4672,-2.6004)"/><animateTransform attributeName="transform" type="translate" additive="replace" fill="freeze" dur="1s" begin="1.3263157894736841s" calcMode="spline" keyTimes="0;1" values="-1024 0;0 0" keySplines="0.22 0.61 0.36 1"/></g><g transform="translate(-1024 0)"><path id="path579559" d="m374.32 440.06c-0.4096 0-0.5888-0.4864-0.7936-2.176-0.2048-1.408-0.4864-3.5328-2.432-3.5328-1.4592 0-3.328 1.8688-5.12 4.224 0.1536-0.6144 0.2304-1.024 0.2304-1.3056-0.0256-0.5632-0.512-1.024-1.1008-0.9984-0.5632 0.0256-0.9984 0.4864-0.9728 1.0752-0.0512 0.6144-1.2032 3.7376-1.92 5.6064-0.64 1.7152-1.024 2.816-1.152 3.328s0.128 1.024 0.6144 1.2032c0.128 0.0512 0.256 0.0768 0.384 0.0768 0.3584 0 0.7168-0.1792 0.896-0.512 3.4816-6.1952 7.04-10.522 8.1152-10.598 0.2048 0.2304 0.3072 1.152 0.384 1.7152 0.2048 1.4848 0.5376 3.968 2.8672 3.968 0.5888 0 1.0496-0.4864 1.0496-1.0496s-0.4608-1.024-1.0496-1.024z" stroke-miterlimit="2" fill="#036280" stroke="none" stroke-width="0" transform="matrix(1.0068,0,0,1.0068,-3.4672,-2.6004)"/><animateTransform attributeName="transform" type="translate" additive="replace" fill="freeze" dur="1s" begin="1.2526315789473683s" calcMode="spline" keyTimes="0;1" values="-1024 0;0 0" keySplines="0.22 0.61 0.36 1"/></g><g transform="translate(-1024 0)"><path id="path579561" d="m399.78 440.39c-0.384-0.4352-1.0496-0.4608-1.4592-0.0768-1.6128 1.4336-6.528 5.1712-9.9584 5.1712-0.9728 0-1.6896-0.256-2.176-0.7936-0.9472-1.0752-0.7424-2.9184-0.7424-2.944 0.0512-0.4352-0.2048-0.8704-0.6144-1.0752-0.128-0.0512-0.256-0.0768-0.4096-0.0768 0.1792-0.384 0.1024-0.8192-0.1792-1.1264-1.2288-1.28-3.072-1.7152-5.1968-1.2288-1.664 0.4096-3.456 1.3568-4.9408 2.6112-2.4832 2.1504-3.3024 4.4288-2.1248 5.9392 0.4352 0.5376 1.2288 1.1776 2.7392 1.2032 0.0256 0.0256 0.0768 0.0256 0.1024 0.0256 2.5088 0 6.0672-1.7152 8.7552-4.0704 0.1792 0.7168 0.4864 1.4592 1.0496 2.0992 0.896 0.9984 2.1504 1.5104 3.7376 1.5104 4.9152 0 11.085-5.4784 11.341-5.7088 0.4096-0.384 0.4608-1.024 0.0768-1.4592zm-24.96 5.5552c-0.0256 0-0.0512 0-0.0768-0.0256-0.5376 0-0.9216-0.128-1.1264-0.4096-0.3328-0.4352 0.2816-1.7408 1.8432-3.072 1.3824-1.2032 3.5072-2.3296 5.2736-2.3296 0.768 0 1.4592 0.2304 1.9968 0.768 0.1792 0.2048 0.4096 0.3072 0.6656 0.3328-2.2784 2.5344-6.2464 4.736-8.576 4.736z" stroke-miterlimit="2" fill="#036280" stroke="none" stroke-width="0" transform="matrix(1.0068,0,0,1.0068,-3.4672,-2.6004)"/><animateTransform attributeName="transform" type="translate" additive="replace" fill="freeze" dur="1s" begin="1.1789473684210525s" calcMode="spline" keyTimes="0;1" values="-1024 0;0 0" keySplines="0.22 0.61 0.36 1"/></g><g transform="translate(-1024 0)"><path id="path579563" d="m429.69 440.88c-0.128-0.5632-0.6656-0.9216-1.2288-0.8192-7.2704 1.5616-10.982-0.384-12.032-1.7664-0.1792-0.2304-0.4608-0.384-0.7424-0.4096-0.3072-0.0256-0.5888 0.0768-0.7936 0.2816-2.0736 1.92-10.112 6.4768-12.979 6.4768-0.5888 0-0.768-0.2304-0.896-0.4608-0.4864-0.9984 0.1536-3.2768 0.6656-3.9168 0.3584-0.4352 0.2816-1.0752-0.1536-1.4336s-1.1008-0.3072-1.4592 0.1536c-0.8448 1.0496-1.8432 4.1728-0.9216 6.0928 0.512 1.0496 1.4848 1.6384 2.7648 1.6384 3.2256 0 10.547-3.9936 13.619-6.3744 0.6912 0.5888 1.8176 1.3312 3.6096 1.8176 2.688 0.768 5.9648 0.7424 9.7536-0.0512 0.5632-0.128 0.9216-0.6656 0.7936-1.2288z" stroke-miterlimit="2" fill="#036280" stroke="none" stroke-width="0" transform="matrix(1.0068,0,0,1.0068,-3.4672,-2.6004)"/><animateTransform attributeName="transform" type="translate" additive="replace" fill="freeze" dur="1s" begin="1.031578947368421s" calcMode="spline" keyTimes="0;1" values="-1024 0;0 0" keySplines="0.22 0.61 0.36 1"/></g><g transform="translate(-1024 0)"><path id="path579565" d="m452.33 440.52c-0.3072-0.4864-0.9472-0.6144-1.4336-0.3072-0.0768 0.0768-8.6272 5.6832-17.741 5.6832-1.1008 0-1.9712-0.2304-2.4576-0.6912-0.384-0.3584-0.5888-0.896-0.5888-1.5872v-0.3072l0.1024 0.0256c2.6368 0.6912 4.7616-0.4864 5.8368-1.8176 1.024-1.2288 1.3312-2.7136 0.8192-3.7888-0.4096-0.896-1.3312-1.408-2.5088-1.408-3.3536 0-6.3232 4.0704-6.3232 7.296 0 1.28 0.4352 2.3552 1.2544 3.0976 0.896 0.8448 2.2016 1.2544 3.8656 1.2544 9.7536 0 18.534-5.7856 18.893-6.016 0.4864-0.3328 0.6144-0.9728 0.2816-1.4336zm-17.971-2.1248c0.1536 0 0.5376 0.0256 0.64 0.2048 0.128 0.256 0.0256 0.9216-0.5376 1.6128-0.3328 0.384-1.5872 1.664-3.7376 1.1264h-0.0256c0.8192-1.6128 2.3296-2.944 3.6608-2.944z" stroke-miterlimit="2" fill="#036280" stroke="none" stroke-width="0" transform="matrix(1.0068,0,0,1.0068,-3.4672,-2.6004)"/><animateTransform attributeName="transform" type="translate" additive="replace" fill="freeze" dur="1s" begin="0.9578947368421051s" calcMode="spline" keyTimes="0;1" values="-1024 0;0 0" keySplines="0.22 0.61 0.36 1"/></g><g transform="translate(-1024 0)"><path id="path579567" d="m472.39 414.56c0.4096-0.4096 0.384-1.0752-0.0256-1.4848-0.4096-0.384-1.0752-0.3584-1.4592 0.0512-1.4336 1.5104-7.2448 8.448-12.416 15.898-10.086 14.541-8.6528 17.843-8.192 18.944 0.384 0.896 1.3056 1.9712 3.5584 1.9712 3.5584 0 7.4752-1.3568 11.648-4.0704 3.0464-1.9968 5.0688-3.968 5.1456-4.0448 0.4096-0.4096 0.4096-1.0496 0-1.4592-0.384-0.4096-1.0496-0.4096-1.4592-0.0256-0.0768 0.0768-7.7312 7.5264-15.334 7.5264-1.3568 0-1.5616-0.512-1.664-0.7168-0.4352-0.9984-0.512-4.6848 7.9872-16.947 5.12-7.3472 10.803-14.182 12.211-15.642z" stroke-miterlimit="2" fill="#036280" stroke="none" stroke-width="0" transform="matrix(1.0068,0,0,1.0068,-3.4672,-2.6004)"/><animateTransform attributeName="transform" type="translate" additive="replace" fill="freeze" dur="1s" begin="0.8842105263157893s" calcMode="spline" keyTimes="0;1" values="-1024 0;0 0" keySplines="0.22 0.61 0.36 1"/></g><g transform="translate(-1024 0)"><path id="path579569" d="m513.91 440.34c-0.4096-0.384-1.0752-0.384-1.4592 0.0256-0.0512 0.0512-5.0688 5.0176-12.365 5.0176-0.256 0-0.6656-0.0256-0.768-0.2304-0.1536-0.3072-0.9472-3.3536 11.699-18.611 1.6384-1.9456 2.816-3.3024 2.9696-3.4816 0.3584-0.4608 0.3072-1.1008-0.128-1.4848-0.4352-0.3584-1.1008-0.3072-1.4592 0.128-0.0768 0.0768-0.1792 0.2048-0.3328 0.384-0.9216 1.0752-1.792 2.0992-2.6112 3.0976-3.712 4.3776-9.9584 11.725-12.851 14.848-0.0256-0.2048-0.1024-0.4096-0.256-0.5632-1.2288-1.28-3.072-1.7152-5.1968-1.2288-1.664 0.384-3.456 1.3568-4.9408 2.6112-2.4832 2.1504-3.3024 4.4288-2.1248 5.9392 0.384 0.4864 1.1264 1.1008 2.432 1.1776h0.2816c3.0976 0 7.68-2.7904 10.445-5.6064l0.7936-0.8192c-1.3056 2.944-0.8448 3.968-0.6144 4.48 0.3072 0.6656 1.024 1.4336 2.6368 1.4336 8.2176 0 13.645-5.4272 13.85-5.6576 0.4096-0.384 0.4096-1.0496 0-1.4592zm-27.264 5.5552c-0.64-0.0256-0.8448-0.2816-0.9216-0.384-0.3328-0.4352 0.2816-1.7408 1.8432-3.072 1.3824-1.2032 3.5072-2.3296 5.2736-2.3296 0.768 0 1.4592 0.2304 1.9968 0.768 0.1792 0.2048 0.4096 0.3072 0.64 0.3328-2.7904 2.688-6.7584 4.8128-8.832 4.6848z" stroke-miterlimit="2" fill="#036280" stroke="none" stroke-width="0" transform="matrix(1.0068,0,0,1.0068,-3.4672,-2.6004)"/><animateTransform attributeName="transform" type="translate" additive="replace" fill="freeze" dur="1s" begin="0.8105263157894737s" calcMode="spline" keyTimes="0;1" values="-1024 0;0 0" keySplines="0.22 0.61 0.36 1"/></g><g transform="translate(-1024 0)"><path id="path579571" d="m536.33 440.52c-0.3072-0.4864-0.9472-0.6144-1.4336-0.3072-0.0768 0.0768-8.6272 5.6832-17.741 5.6832-1.1008 0-1.9712-0.2304-2.4576-0.6912-0.384-0.3584-0.5888-0.896-0.5888-1.5872v-0.3072l0.1024 0.0256c2.6368 0.6912 4.7616-0.4864 5.8368-1.8176 1.024-1.2288 1.3312-2.7136 0.8192-3.7888-0.4096-0.896-1.3312-1.408-2.5088-1.408-3.3536 0-6.3232 4.0704-6.3232 7.296 0 1.28 0.4352 2.3552 1.2544 3.0976 0.896 0.8448 2.2016 1.2544 3.8656 1.2544 9.7536 0 18.534-5.7856 18.893-6.016 0.4864-0.3328 0.6144-0.9728 0.2816-1.4336zm-17.971-2.1248c0.1536 0 0.5376 0.0256 0.64 0.2048 0.128 0.256 0.0256 0.9216-0.5376 1.6128-0.3328 0.384-1.5872 1.664-3.7376 1.1264h-0.0256c0.8192-1.6128 2.3296-2.944 3.6608-2.944z" stroke-miterlimit="2" fill="#036280" stroke="none" stroke-width="0" transform="matrix(1.0068,0,0,1.0068,-3.4672,-2.6004)"/><animateTransform attributeName="transform" type="translate" additive="replace" fill="freeze" dur="1s" begin="0.7368421052631579s" calcMode="spline" keyTimes="0;1" values="-1024 0;0 0" keySplines="0.22 0.61 0.36 1"/></g><g transform="translate(-1024 0)"><path id="path579573" d="m557.14 440.88c-0.1024-0.5632-0.64-0.9216-1.2032-0.8192-0.0512 0.0256-5.4528 1.0752-11.085 2.6368-0.896 0.256-1.7408 0.4864-2.5088 0.7168-0.6912-0.896-1.7664-1.5104-2.6368-1.9968-0.6656-0.3584-1.5616-0.8704-1.6384-1.2288 0-0.0512 0.1792-0.256 0.6912-0.4352 1.0496-0.384 2.3296-0.3328 2.6368-0.1792 0.4608 0.3584 1.1008 0.2816 1.4592-0.1536s0.2816-1.1008-0.1536-1.4592c-1.1264-0.9216-4.0448-0.64-5.4784 0.2304-0.9728 0.5888-1.408 1.4848-1.1776 2.4576 0.2816 1.2544 1.4848 1.92 2.6368 2.5856 0.5888 0.3072 1.0752 0.6144 1.4592 0.896-7.3984 2.5088-8.3712 4.2496-8.7296 4.864-0.384 0.6912-0.4608 1.408-0.2048 2.0992 0.5632 1.5104 1.7152 2.3296 3.2 2.3296 0.2304 0 0.4608-0.0256 0.6912-0.0512 3.2768-0.512 7.8336-4.8128 7.9872-7.5776v-0.4352c4.3776-1.3312 9.4208-2.5088 13.235-3.2512 0.5632-0.1024 0.9216-0.6656 0.8192-1.2288zm-22.349 10.419c-0.8704 0.1536-1.3312-0.128-1.6384-0.9216 0-0.0512-0.0512-0.1536 0.0768-0.3584 0.6912-1.2544 3.7888-2.6624 7.7056-3.968-0.512 1.6896-3.712 4.8896-6.144 5.248z" stroke-miterlimit="2" fill="#036280" stroke="none" stroke-width="0" transform="matrix(1.0068,0,0,1.0068,-3.4672,-2.6004)"/><animateTransform attributeName="transform" type="translate" additive="replace" fill="freeze" dur="1s" begin="0.5894736842105263s" calcMode="spline" keyTimes="0;1" values="-1024 0;0 0" keySplines="0.22 0.61 0.36 1"/></g><g transform="translate(-1024 0)"><path id="path579575" d="m559.94 433.17c0.1792 0.1024 0.3584 0.1536 0.5376 0.1536 0.3584 0 0.6912-0.1792 0.896-0.4864 0.6656-1.1264 2.3296-2.3808 3.328-3.1488l0.2816-0.2048c0.4608-0.3584 0.5376-0.9984 0.1792-1.4592-0.3328-0.4608-0.9984-0.5376-1.4592-0.1792l-0.256 0.1792c-1.1008 0.8704-2.9696 2.2784-3.8656 3.7376-0.2816 0.4864-0.128 1.1264 0.3584 1.408zm17.357 7.3984c-0.2816-0.512-0.9216-0.6656-1.408-0.384-6.3232 3.6864-16.205 6.784-19.046 6.784-0.4352 0-0.512-0.1792-0.5632-0.2816-0.4864-0.9728 0.4096-3.7376 1.3824-4.9664 0.3584-0.4352 0.2816-1.0752-0.1792-1.4336-0.4352-0.3584-1.1008-0.3072-1.4592 0.1536-1.1008 1.3824-2.6368 5.0432-1.6384 7.1424 0.4608 0.9472 1.3312 1.4592 2.4576 1.4592 3.456 0 13.824-3.4304 20.096-7.0656 0.4864-0.2816 0.6656-0.9216 0.3584-1.408z" stroke-miterlimit="2" fill="#036280" stroke="none" stroke-width="0" transform="matrix(1.0068,0,0,1.0068,-3.4672,-2.6004)"/><animateTransform attributeName="transform" type="translate" additive="replace" fill="freeze" dur="1s" begin="0.5157894736842105s" calcMode="spline" keyTimes="0;1" values="-1024 0;0 0" keySplines="0.22 0.61 0.36 1"/></g><g transform="translate(-1024 0)"><path id="path579577" d="m609.93 440.98c-0.0512-0.5888-0.5632-0.9984-1.1264-0.9216-6.7072 0.768-12.16 2.4064-16.512 4.4544 0.1536-1.792 0-3.2512-0.5632-4.0448-0.2048-0.256-0.512-0.4096-0.8192-0.4096-0.3328 0-0.64 0.128-0.8448 0.384-0.3072 0.4096-0.6912 0.8192-1.1008 1.2032-0.1792-0.4864-0.4352-0.9472-0.8192-1.3312-1.0496-1.0752-2.8416-1.6384-5.1456-1.6384-3.8656 0-9.3696 3.6864-9.3952 7.168-0.0512 0.7936 0.2304 1.5616 0.7936 2.1504 0.4864 0.5376 1.4336 1.1776 3.0976 1.1776 2.1504 0 8.96-2.4832 12.8-5.9648 0 0.6656-0.0768 1.4848-0.2304 2.432-8.6016 4.736-12.083 10.982-11.904 14.054 0.1024 1.5872 1.1008 2.6112 2.6112 2.6112 2.0992 0 5.2736-1.28 8.32-7.3216 1.2288-2.4064 2.2528-5.3248 2.7904-7.936 4.0704-2.1248 9.6768-4.0704 17.152-4.9408 0.5632-0.0512 0.9728-0.5632 0.896-1.1264zm-32.435 6.1184c-0.7168 0-1.28-0.1792-1.5872-0.512-0.1536-0.1792-0.256-0.4096-0.2304-0.64v-0.0768c0-2.0992 4.3008-5.12 7.3216-5.12 2.3296 0 3.2768 0.64 3.6608 0.9984 0.256 0.2816 0.384 0.5632 0.3584 0.896 0 0.1536 0.0256 0.3072 0.0768 0.4352-3.4816 2.3552-8.2432 4.0192-9.6 4.0192zm9.7536 6.9632c-1.9712 3.9168-4.352 6.1696-6.4768 6.1696-0.2304 0-0.4864 0-0.5376-0.6656-0.0768-1.5616 1.5104-5.2992 6.3232-9.1136 0.8192-0.64 1.7664-1.3056 2.8672-1.9968-0.512 1.7664-1.2032 3.712-2.176 5.6064z" stroke-miterlimit="2" fill="#036280" stroke="none" stroke-width="0" transform="matrix(1.0068,0,0,1.0068,-3.4672,-2.6004)"/><animateTransform attributeName="transform" type="translate" additive="replace" fill="freeze" dur="1s" begin="0.44210526315789467s" calcMode="spline" keyTimes="0;1" values="-1024 0;0 0" keySplines="0.22 0.61 0.36 1"/></g><g transform="translate(-1024 0)"><path id="path579579" d="m634.65 440.47c-0.3328-0.4608-0.9984-0.5632-1.4592-0.2048-3.328 2.4832-9.3696 6.4-11.418 6.4-0.384 0-0.5632-0.2048-0.64-2.2016-0.0768-1.6384-0.1792-4.4032-2.9696-4.4032-2.8416 0-6.144 2.688-8.1152 4.3008-0.2304 0.2048-0.4864 0.4096-0.7168 0.5888 0.1792-1.1776 1.7152-4.0192 2.688-5.0432 0.384-0.4096 0.384-1.0752-0.0512-1.4592-0.4096-0.4096-1.0752-0.384-1.4592 0.0256-0.7424 0.7936-4.0192 5.4528-3.072 7.6544 0.3072 0.7168 0.9728 1.1264 1.8432 1.1264 0.5376 0 0.9216-0.3328 2.0992-1.28 1.6384-1.3568 4.6848-3.84 6.784-3.84 0.5632 0 0.7936 0.2048 0.896 2.432 0.0512 1.5616 0.1536 4.1728 2.7136 4.1728 0.5632 0 2.2784 0 7.7568-3.456 2.6112-1.664 4.8128-3.3024 4.9152-3.3536 0.4608-0.3584 0.5376-0.9984 0.2048-1.4592z" stroke-miterlimit="2" fill="#036280" stroke="none" stroke-width="0" transform="matrix(1.0068,0,0,1.0068,-3.4672,-2.6004)"/><animateTransform attributeName="transform" type="translate" additive="replace" fill="freeze" dur="1s" begin="0.3684210526315789s" calcMode="spline" keyTimes="0;1" values="-1024 0;0 0" keySplines="0.22 0.61 0.36 1"/></g><g transform="translate(-1024 0)"><path id="path579581" d="m657.53 440.52c-0.3072-0.4864-0.9472-0.6144-1.4336-0.3072-0.0768 0.0768-8.6272 5.6832-17.741 5.6832-1.1008 0-1.9712-0.2304-2.4576-0.6912-0.384-0.3584-0.5888-0.896-0.5888-1.5872v-0.3072l0.1024 0.0256c2.6368 0.6912 4.7616-0.4864 5.8368-1.8176 1.024-1.2288 1.3312-2.7136 0.8192-3.7888-0.4096-0.896-1.3312-1.408-2.5088-1.408-3.3536 0-6.3232 4.0704-6.3232 7.296 0 1.28 0.4352 2.3552 1.2544 3.0976 0.896 0.8448 2.2016 1.2544 3.8656 1.2544 9.7536 0 18.534-5.7856 18.893-6.016 0.4864-0.3328 0.6144-0.9728 0.2816-1.4336zm-17.971-2.1248c0.1536 0 0.5376 0.0256 0.64 0.2048 0.128 0.256 0.0256 0.9216-0.5376 1.6128-0.3328 0.384-1.5872 1.664-3.7376 1.1264h-0.0256c0.8192-1.6128 2.3296-2.944 3.6608-2.944z" stroke-miterlimit="2" fill="#036280" stroke="none" stroke-width="0" transform="matrix(1.0068,0,0,1.0068,-3.4672,-2.6004)"/><animateTransform attributeName="transform" type="translate" additive="replace" fill="freeze" dur="1s" begin="0.14736842105263157s" calcMode="spline" keyTimes="0;1" values="-1024 0;0 0" keySplines="0.22 0.61 0.36 1"/></g><g transform="translate(-1024 0)"><path id="path579583" d="m668.07 440.06c-0.4096 0-0.5888-0.4864-0.7936-2.176-0.2048-1.408-0.4864-3.5328-2.432-3.5328-1.4592 0-3.328 1.8688-5.12 4.224 0.1536-0.6144 0.2304-1.024 0.2304-1.3056-0.0256-0.5632-0.512-1.024-1.1008-0.9984-0.5632 0.0256-0.9984 0.4864-0.9728 1.0752-0.0512 0.6144-1.2032 3.7376-1.92 5.6064-0.64 1.7152-1.024 2.816-1.152 3.328s0.128 1.024 0.6144 1.2032c0.128 0.0512 0.256 0.0768 0.384 0.0768 0.3584 0 0.7168-0.1792 0.896-0.512 3.4816-6.1952 7.04-10.522 8.1152-10.598 0.2048 0.2304 0.3072 1.152 0.384 1.7152 0.2048 1.4848 0.5376 3.968 2.8672 3.968 0.5888 0 1.0496-0.4864 1.0496-1.0496s-0.4608-1.024-1.0496-1.024z" stroke-miterlimit="2" fill="#036280" stroke="none" stroke-width="0" transform="matrix(1.0068,0,0,1.0068,-3.4672,-2.6004)"/><animateTransform attributeName="transform" type="translate" additive="replace" fill="freeze" dur="1s" begin="0.07368421052631578s" calcMode="spline" keyTimes="0;1" values="-1024 0;0 0" keySplines="0.22 0.61 0.36 1"/></g><g transform="translate(-1024 0)"><path id="path579585" d="m689.24 440.88c-0.1024-0.5632-0.64-0.9216-1.2032-0.8192-0.0512 0.0256-5.4528 1.0752-11.085 2.6368-0.896 0.256-1.7408 0.4864-2.5088 0.7168-0.6912-0.896-1.7664-1.5104-2.6368-1.9968-0.6656-0.3584-1.5616-0.8704-1.6384-1.2288 0-0.0512 0.1792-0.256 0.6912-0.4352 1.0496-0.384 2.3296-0.3328 2.6368-0.1792 0.4608 0.3584 1.1008 0.2816 1.4592-0.1536s0.2816-1.1008-0.1536-1.4592c-1.1264-0.9216-4.0448-0.64-5.4784 0.2304-0.9728 0.5888-1.408 1.4848-1.1776 2.4576 0.2816 1.2544 1.4848 1.92 2.6368 2.5856 0.5888 0.3072 1.0752 0.6144 1.4592 0.896-7.3984 2.5088-8.3712 4.2496-8.7296 4.864-0.384 0.6912-0.4608 1.408-0.2048 2.0992 0.5632 1.5104 1.7152 2.3296 3.2 2.3296 0.2304 0 0.4608-0.0256 0.6912-0.0512 3.2768-0.512 7.8336-4.8128 7.9872-7.5776v-0.4352c4.3776-1.3312 9.4208-2.5088 13.235-3.2512 0.5632-0.1024 0.9216-0.6656 0.8192-1.2288zm-22.349 10.419c-0.8704 0.1536-1.3312-0.128-1.6384-0.9216 0-0.0512-0.0512-0.1536 0.0768-0.3584 0.6912-1.2544 3.7888-2.6624 7.7056-3.968-0.512 1.6896-3.712 4.8896-6.144 5.248z" stroke-miterlimit="2" fill="#036280" stroke="none" stroke-width="0" transform="matrix(1.0068,0,0,1.0068,-3.4672,-2.6004)"/><animateTransform attributeName="transform" type="translate" additive="replace" fill="freeze" dur="1s" begin="0s" calcMode="spline" keyTimes="0;1" values="-1024 0;0 0" keySplines="0.22 0.61 0.36 1"/></g><g transform="translate(-1024 0)"><path id="path579588" d="m353.05 386.4h7.2l-0.144-100.8h-6.048l-45.072 77.904-45.072-77.904h-6.192v100.8h7.2v-85.968l42.192 72.576h3.6l42.192-72.864z" stroke-miterlimit="2" fill="#405f7d" stroke="none" stroke-width="0" transform="matrix(1.0068,0,0,1.0068,-3.4672,-2.6004)"/><animateTransform attributeName="transform" type="translate" additive="replace" fill="freeze" dur="1s" begin="1.4s" calcMode="spline" keyTimes="0;1" values="-1024 0;0 0" keySplines="0.22 0.61 0.36 1"/></g><g transform="translate(-1024 0)"><path id="path579592" d="m551 294.67c-7.2-6.048-17.136-9.072-29.808-9.072h-36.144v6.624h36.144c10.656 0 18.864 2.448 24.624 7.2 5.616 4.752 8.496 11.52 8.496 20.16 0 8.784-2.88 15.552-8.496 20.16-5.76 4.752-13.968 7.056-24.624 7.056h-36.144v39.6h7.344v-32.976h28.8c12.672 0 22.608-2.88 29.808-8.928s10.8-14.256 10.8-24.912c0-10.512-3.6-18.864-10.8-24.912z" stroke-miterlimit="2" fill="#405f7d" stroke="none" stroke-width="0" transform="matrix(1.0068,0,0,1.0068,-3.4672,-2.6004)"/><animateTransform attributeName="transform" type="translate" additive="replace" fill="freeze" dur="1s" begin="0.6631578947368421s" calcMode="spline" keyTimes="0;1" values="-1024 0;0 0" keySplines="0.22 0.61 0.36 1"/></g><g transform="translate(-1024 0)"><path id="path579594" d="m652.53 294.67c-7.2-6.048-17.136-9.072-29.808-9.072h-36.144v6.624h36.144c10.656 0 18.864 2.448 24.624 7.2 5.616 4.752 8.496 11.52 8.496 20.16 0 8.784-2.88 15.552-8.496 20.16-5.76 4.752-13.968 7.056-24.624 7.056h-36.144v39.6h7.344v-32.976h28.8c12.672 0 22.608-2.88 29.808-8.928s10.8-14.256 10.8-24.912c0-10.512-3.6-18.864-10.8-24.912z" stroke-miterlimit="2" fill="#405f7d" stroke="none" stroke-width="0" transform="matrix(1.0068,0,0,1.0068,-3.4672,-2.6004)"/><animateTransform attributeName="transform" type="translate" additive="replace" fill="freeze" dur="1s" begin="0.22105263157894733s" calcMode="spline" keyTimes="0;1" values="-1024 0;0 0" keySplines="0.22 0.61 0.36 1"/></g><g transform="translate(-1024 0)"><path id="path579596" d="m719.91 285.6h-7.344l-46.368 100.8h7.92l42.048-92.736 42.192 92.736h7.92z" stroke-miterlimit="2" fill="#405f7d" stroke="none" stroke-width="0" transform="matrix(1.0068,0,0,1.0068,-3.4672,-2.6004)"/><animateTransform attributeName="transform" type="translate" additive="replace" fill="freeze" dur="1s" begin="0.29473684210526313s" calcMode="spline" keyTimes="0;1" values="-1024 0;0 0" keySplines="0.22 0.61 0.36 1"/></g><g transform="translate(-1024 0)"><path id="icon" d="m422.13 286.58c-0.009 0-8.3681 17.211-18.576 38.247-10.209 21.036-18.62 38.372-18.694 38.524-0.0964 0.19899-0.11839 0.26826-0.0794 0.24748 0.0299-0.0157 8.4462-4.3517 18.703-9.6349l18.649-9.6066 18.222 9.3857c10.022 5.1621 18.437 9.4984 18.702 9.6366l0.48016 0.25063-0.13445-0.27771c-0.0736-0.1529-8.483-17.493-18.693-38.528-10.205-21.035-18.563-38.247-18.574-38.247zm0.0283 67.995c-0.0242-0.008-8.7152 4.1785-19.312 9.3036-10.598 5.1249-19.286 9.3359-19.307 9.3574-0.0214 0.0217-1.2812 3.1917-2.7991 7.0447-1.518 3.8529-2.772 7.0362-2.7862 7.0741-0.0227 0.0586 0.0435 0.0353 0.45214-0.1609 0.26322-0.12625 10.21-4.9707 22.103-10.766l21.624-10.536 22.078 10.756c12.143 5.9155 22.089 10.762 22.102 10.769 0.0129 0.008 0.011-0.0186-0.005-0.0586-0.0151-0.04-1.2699-3.2254-2.7878-7.0781-1.5179-3.8532-2.7843-7.0277-2.8139-7.0554-0.0293-0.0274-8.705-4.2317-19.279-9.3427-10.574-5.1111-19.245-9.2991-19.269-9.3076z" fill="#81bece" stroke="none" stroke-width=".56629" transform="matrix(1.0068,0,0,1.0068,-3.4672,-2.6004)"/><animateTransform attributeName="transform" type="translate" additive="replace" fill="freeze" dur="1s" begin="1.1052631578947367s" calcMode="spline" keyTimes="0;1" values="-1024 0;0 0" keySplines="0.22 0.61 0.36 1"/></g></svg>